<?xml version="1.0" encoding="utf-8" ?>
<svg xmlns="http://www.w3.org/2000/svg" xmlns:xlink="http://www.w3.org/1999/xlink" width="128.75" height="32" viewBox="0 0 128.75 32">
	<defs>
		<clipPath id="clipPath2997510132">
			<path transform="matrix(1 0 0 1 0 5.33334)" d="M0 0L24 0L24 21.3333L0 21.3333L0 0Z" fill-rule="nonzero"/>
		</clipPath>
	</defs>
	<g clip-path="url(#clipPath2997510132)">
		<defs>
			<clipPath id="clipPath1013691214">
				<path transform="matrix(1 0 0 1 0 5.33334)" d="M0 0L24 0L24 21.3333L0 21.3333L0 0Z" fill-rule="nonzero"/>
			</clipPath>
		</defs>
		<g clip-path="url(#clipPath1013691214)">
			<path transform="matrix(1 0 0 1 0.000110626 6.51853)" d="M19.9999 7.11111L15.2378 7.11111L10.8586 0.298519C10.7992 0.206206 10.7177 0.133373 10.6142 0.0800197C10.5107 0.0266668 10.3991 -6.48249e-06 10.2795 1.18174e-09L7.55031 1.18174e-09C7.10739 1.18174e-09 6.78781 0.376667 6.90947 0.755185L8.95239 7.11111L4.66656 7.11111L2.86656 4.97778C2.74072 4.82852 2.54281 4.74074 2.33322 4.74074L0.666973 4.74074C0.233223 4.74074 -0.0851105 5.10296 0.0203062 5.47704L1.33322 9.48148L0.0203062 13.4859C-0.0851105 13.86 0.233223 14.2222 0.666973 14.2222L2.33322 14.2222C2.54322 14.2222 2.74072 14.1344 2.86656 13.9852L4.66656 11.8519L8.95239 11.8519L6.90947 18.2074C6.78781 18.5859 7.10739 18.963 7.55031 18.963L10.2795 18.963C10.5186 18.963 10.7395 18.8489 10.8582 18.6644L15.2378 11.8519L19.9999 11.8519C21.4728 11.8519 23.9999 10.7907 23.9999 9.48148C23.9999 8.17222 21.4728 7.11111 19.9999 7.11111Z" fill-rule="nonzero" fill="rgb(37, 99, 235)"/>
		</g>
	</g>
	<path transform="matrix(1 0 0 1 32 -5)" d="M0.849609 15.5859L0.849609 12.5449L15.1934 12.5449L15.1934 15.5859L9.84375 15.5859L9.84375 30L6.19922 30L6.19922 15.5859L0.849609 15.5859Z" fill-rule="nonzero" fill="rgb(37, 99, 235)"/>
	<path transform="matrix(1 0 0 1 32 -5)" d="M16.1293 30L16.1293 16.9102L19.6449 16.9102L19.6449 19.1953L19.7856 19.1953Q20.143 17.9766 20.9809 17.3496Q21.8246 16.7227 22.9262 16.7227Q23.2016 16.7227 23.5121 16.7578Q23.8285 16.7871 24.0629 16.8457L24.0629 20.0742Q23.8168 19.9922 23.3598 19.9336Q22.9086 19.875 22.5336 19.875Q21.7367 19.875 21.1039 20.2207Q20.477 20.5664 20.1137 21.1816Q19.7563 21.791 19.7563 22.5938L19.7563 30L16.1293 30Z" fill-rule="nonzero" fill="rgb(37, 99, 235)"/>
	<path transform="matrix(1 0 0 1 32 -5)" d="M29.2974 30.2461Q28.0493 30.2461 27.065 29.8125Q26.0864 29.373 25.5181 28.5059Q24.9556 27.6387 24.9556 26.3438Q24.9556 25.2539 25.354 24.5156Q25.7525 23.7715 26.438 23.3203Q27.1294 22.8691 28.0142 22.6348Q28.8989 22.4004 29.8716 22.3066Q31.0083 22.1953 31.7056 22.0898Q32.4087 21.9844 32.7251 21.7734Q33.0415 21.5566 33.0415 21.1348L33.0415 21.0879Q33.0415 20.2793 32.5318 19.834Q32.022 19.3887 31.1021 19.3887Q30.1177 19.3887 29.5376 19.8223Q28.9575 20.25 28.7759 20.9004L25.4126 20.625Q25.6704 19.4297 26.4146 18.5566Q27.1646 17.6836 28.354 17.2148Q29.5493 16.7402 31.1138 16.7402Q32.2095 16.7402 33.2056 16.998Q34.2075 17.25 34.9868 17.7891Q35.7661 18.3223 36.2173 19.1602Q36.6685 19.998 36.6685 21.1699L36.6685 30L33.229 30L33.229 28.1836L33.1236 28.1836Q32.8071 28.7988 32.2798 29.2617Q31.7583 29.7246 31.0142 29.9883Q30.27 30.2461 29.2974 30.2461ZM30.3403 27.7441Q31.1431 27.7441 31.7525 27.4219Q32.3677 27.0996 32.7134 26.5547Q33.065 26.0098 33.065 25.3242L33.065 23.9297Q32.9009 24.041 32.6021 24.1348Q32.3032 24.2227 31.94 24.293Q31.5767 24.3633 31.2075 24.4219Q30.8443 24.4746 30.5454 24.5156Q29.9068 24.6094 29.4263 24.8145Q28.9517 25.0195 28.6821 25.3652Q28.4185 25.7109 28.4185 26.2207Q28.4185 26.9707 28.9575 27.3574Q29.5025 27.7441 30.3403 27.7441Z" fill-rule="nonzero" fill="rgb(37, 99, 235)"/>
	<path transform="matrix(1 0 0 1 32 -5)" d="M51.2189 16.9102L46.6428 30L42.5529 30L37.9767 16.9102L41.8146 16.9102L44.5275 26.2793L44.6623 26.2793L47.3752 16.9102L51.2189 16.9102Z" fill-rule="nonzero" fill="rgb(37, 99, 235)"/>
	<path transform="matrix(1 0 0 1 32 -5)" d="M58.6049 30.252Q56.5892 30.252 55.1302 29.4316Q53.6771 28.6113 52.892 27.0996Q52.1127 25.5879 52.1127 23.5137Q52.1127 21.4922 52.8978 19.9688Q53.683 18.4453 55.1068 17.5957Q56.5365 16.7402 58.4584 16.7402Q59.7592 16.7402 60.8783 17.1562Q61.9974 17.5664 62.8353 18.3984Q63.6791 19.2246 64.1478 20.4727Q64.6166 21.7148 64.6166 23.3848L64.6166 24.3809L53.5658 24.3809L53.5658 22.1309L61.2006 22.1309Q61.1947 21.3516 60.8549 20.748Q60.515 20.1387 59.9115 19.793Q59.3138 19.4473 58.5228 19.4473Q57.6967 19.4473 57.058 19.8281Q56.4252 20.209 56.0677 20.8477Q55.7103 21.4805 55.6986 22.2539L55.6986 24.3926Q55.6986 25.3652 56.0619 26.0742Q56.431 26.7832 57.0931 27.1641Q57.7611 27.5449 58.6635 27.5449Q59.2728 27.5449 59.7709 27.375Q60.2748 27.1992 60.6322 26.8652Q60.9955 26.5254 61.183 26.0332L64.5345 26.25Q64.2826 27.4629 63.4916 28.3652Q62.7064 29.2617 61.4642 29.7598Q60.2279 30.252 58.6049 30.252Z" fill-rule="nonzero" fill="rgb(37, 99, 235)"/>
	<path transform="matrix(1 0 0 1 32 -5)" d="M70.6166 12.5449L70.6166 30L66.9897 30L66.9897 12.5449L70.6166 12.5449Z" fill-rule="nonzero" fill="rgb(37, 99, 235)"/>
	<path transform="matrix(1 0 0 1 32 -5)" d="M76.5943 30L72.6392 30L78.6568 12.5449L83.4146 12.5449L89.438 30L85.4829 30L81.106 16.5352L80.9712 16.5352L76.5943 30ZM76.3482 23.1387L85.688 23.1387L85.688 26.0156L76.3482 26.0156L76.3482 23.1387Z" fill-rule="nonzero" fill="rgb(37, 99, 235)"/>
	<path transform="matrix(1 0 0 1 32 -5)" d="M95.2229 12.5449L95.2229 30L91.5373 30L91.5373 12.5449L95.2229 12.5449Z" fill-rule="nonzero" fill="rgb(37, 99, 235)"/>
</svg>
